<?xml version="1.0" encoding="UTF-8" standalone="no"?>
<!-- Created with Inkscape (http://www.inkscape.org/) -->

<svg
   xmlns:dc="http://purl.org/dc/elements/1.1/"
   xmlns:cc="http://creativecommons.org/ns#"
   xmlns:rdf="http://www.w3.org/1999/02/22-rdf-syntax-ns#"
   xmlns:svg="http://www.w3.org/2000/svg"
   xmlns="http://www.w3.org/2000/svg"
   xmlns:sodipodi="http://sodipodi.sourceforge.net/DTD/sodipodi-0.dtd"
   xmlns:inkscape="http://www.inkscape.org/namespaces/inkscape"
   width="256"
   height="256"
   viewBox="0 0 67.733332 67.733335"
   version="1.1"
   id="svg223"
   inkscape:version="0.92.5 (2060ec1f9f, 2020-04-08)"
   sodipodi:docname="woocommerce-cart-settings-low.svg">
  <defs
     id="defs217">
    <mask
       id="b-3"
       maskUnits="userSpaceOnUse">
      <circle
         r="399.97"
         cx="400"
         cy="652.35999"
         style="color:#000000;isolation:auto;mix-blend-mode:normal;solid-color:#000000;fill:#ffffff;stroke:#273b50;stroke-width:0.055301;color-rendering:auto;image-rendering:auto;shape-rendering:auto"
         id="ellipse135-6" />
    </mask>
  </defs>
  <sodipodi:namedview
     id="base"
     pagecolor="#ffffff"
     bordercolor="#666666"
     borderopacity="1.0"
     inkscape:pageopacity="0.0"
     inkscape:pageshadow="2"
     inkscape:zoom="2.0546875"
     inkscape:cx="120.45627"
     inkscape:cy="126.05323"
     inkscape:document-units="mm"
     inkscape:current-layer="g195"
     showgrid="false"
     units="px"
     inkscape:snap-nodes="false"
     inkscape:window-width="1294"
     inkscape:window-height="704"
     inkscape:window-x="72"
     inkscape:window-y="27"
     inkscape:window-maximized="1" />
  <metadata
     id="metadata220">
    <rdf:RDF>
      <cc:Work
         rdf:about="">
        <dc:format>image/svg+xml</dc:format>
        <dc:type
           rdf:resource="http://purl.org/dc/dcmitype/StillImage" />
        <dc:title></dc:title>
      </cc:Work>
    </rdf:RDF>
  </metadata>
  <g
     inkscape:label="Layer 1"
     inkscape:groupmode="layer"
     id="layer1"
     transform="translate(0,-229.26665)">
    <g
       transform="matrix(0.06775608,0,0,0.06775608,7.3365769,251.26849)"
       id="g195">
      <g
         transform="matrix(1.8301622,0,0,1.8301622,-283.20419,-128.39883)"
         id="g167"
         style="display:inline;fill:#333333">
        <g
           id="g262"
           style="fill:#333333">
          <path
             style="fill:#333333;stroke-width:0.38977078"
             inkscape:connector-curvature="0"
             id="path88"
             d="m 231.50759,317.04499 c 74.23181,-31.9706 202.48187,-23.15128 270.0953,20.94616 24.62103,-30.50058 16.16932,-103.99464 -12.12678,-112.44875 19.47647,-74.59823 -19.47646,-234.0844555 74.96452,-239.229415 37.85024,40.423 61.36943,-49.24366 1.1025,-27.56107 C 440.98026,-29.254865 484.40844,125.79968 455.30029,217.8245 350.93539,195.04093 176.01804,245.01802 211.66257,272.94595 315.29088,245.01762 443.17459,211.57651 489.47546,307.12144 438.02965,255.67555 247.67349,264.86242 231.50579,317.0434 Z" />
          <path
             style="fill:#333333;stroke-width:0.38977078"
             inkscape:connector-curvature="0"
             id="path90"
             d="M 239.22466,222.23712 C 156.54258,152.78391 -29.943146,-49.627875 463.0192,49.155605 100.31829,29.311615 147.7222,60.179835 239.22466,222.23712 Z" />
          <path
             style="fill:#333333;stroke-width:0.38977078"
             inkscape:connector-curvature="0"
             id="path92"
             d="M 177.48815,111.99335 C 258.33437,85.167375 355.71463,74.877715 444.27839,92.149275 360.85961,86.269575 264.21207,106.84836 186.30869,132.93877 l -8.8194,-20.94619 z" />
          <path
             style="fill:#333333;stroke-width:0.38977078"
             inkscape:connector-curvature="0"
             id="path94"
             d="m 203.94657,162.70358 12.12689,23.1513 C 270.82843,150.57663 346.5297,135.14174 424.43312,139.554 366.73927,109.78802 293.61054,120.81268 203.94382,162.70511 Z" />
          <path
             style="fill:#333333;stroke-width:0.38977078"
             inkscape:connector-curvature="0"
             id="path96"
             d="m 181.89804,55.770085 31.97048,-14.33192 c 46.30086,55.85799 70.55629,113.918325 85.9912,174.184625 C 270.46135,159.03182 237.75757,107.9525 181.89952,55.770085 Z" />
          <path
             style="fill:#333333;stroke-width:0.38977078"
             inkscape:connector-curvature="0"
             id="path98"
             d="m 248.044,35.926885 27.56108,-1.10247 c 41.8925,50.71309 59.53356,102.525295 59.53356,155.444435 C 319.33694,138.82302 294.71552,87.373225 248.0444,35.927495 Z" />
          <path
             style="fill:#333333;stroke-width:0.38977078"
             inkscape:connector-curvature="0"
             id="path100"
             d="m 325.21313,37.025935 26.45842,1.10238 c 16.90389,43.72852 29.39838,85.254545 27.56109,131.189105 C 373.35294,123.01666 352.039,82.223185 325.21432,37.025385 Z" />
          <path
             style="fill:#333333;stroke:#fffdff;stroke-width:3.55759382;stroke-linecap:round;stroke-linejoin:round"
             inkscape:connector-curvature="0"
             id="path102"
             d="m 255.95871,298.1839 c -6.63314,0.095 -12.82154,1.98255 -17.78331,5.83449 -14.43398,11.20522 -13.08655,34.79134 3.00856,52.65398 16.09514,17.86299 40.87525,23.2761 55.31234,12.0709 14.43708,-11.20506 13.08658,-34.80339 -3.00856,-52.66568 -10.56238,-11.72349 -24.86424,-18.07453 -37.52749,-17.89286 z m 11.35206,22.37514 c 5.54523,-0.0854 11.80613,2.9229 16.43118,8.45338 7.04781,8.42722 7.64806,19.54974 1.32763,24.83586 -6.32047,5.28612 -17.17877,2.73899 -24.22658,-5.68827 -7.04784,-8.42736 -7.63602,-19.56189 -1.31552,-24.84786 2.17268,-1.81704 4.87872,-2.70803 7.78337,-2.75288 z" />
          <path
             style="fill:#333333;stroke:#fffdff;stroke-width:3.55759382;stroke-linecap:round;stroke-linejoin:round"
             inkscape:connector-curvature="0"
             id="path104"
             d="m 452.74606,298.1839 c -6.63316,0.095 -12.82147,1.98255 -17.78323,5.83449 -14.43397,11.20522 -13.08668,34.79134 3.00855,52.65398 16.09508,17.86299 40.87514,23.2761 55.31222,12.0709 14.43712,-11.20506 13.08668,-34.80339 -3.00848,-52.66568 -10.56233,-11.72349 -24.86419,-18.07453 -37.5275,-17.89286 z m 11.35213,22.37514 c 5.54515,-0.0854 11.80608,2.9229 16.43109,8.45338 7.0479,8.42722 7.64814,19.54974 1.32767,24.83586 -6.32041,5.28612 -17.17884,2.73899 -24.22653,-5.68827 -7.04785,-8.42736 -7.63609,-19.56189 -1.31556,-24.84786 2.1727,-1.81704 4.87857,-2.70803 7.78339,-2.75288 z" />
        </g>
      </g>
      <path
         transform="matrix(0.49358087,0,0,0.49358087,422.87821,-388.94171)"
         d="m 374.51,390.72 -9.941,55.981 a 210.26,210.26 0 0 0 -36.762,9.591 l -36.44,-43.32 -44.163,25.499 18.907,52.838 a 210.26,210.26 0 0 0 -27.535,27.053 l -52.302,-18.965 -25.498,44.163 41.932,35.576 a 210.26,210.26 0 0 0 -10.555,38.092 l -53.744,9.5437 v 50.996 l 53.727,9.7749 a 210.26,210.26 0 0 0 10.108,38.513 l -41.536,34.94 25.498,44.165 50.906,-18.215 a 210.26,210.26 0 0 0 28.378,28.517 l -18.354,50.625 44.163,25.498 34.898,-41.135 a 210.26,210.26 0 0 0 38.889,10.434 l 9.4236,53.07 h 50.996 l 9.6714,-53.151 a 210.26,210.26 0 0 0 38.435,-10.697 l 35.209,41.499 44.163,-25.499 -18.79,-51.823 a 210.26,210.26 0 0 0 27.577,-27.762 l 52.141,18.658 25.498,-44.165 -42.919,-36.103 a 210.26,210.26 0 0 0 9.9205,-37.094 l 55.232,-10.05 v -50.996 l -55.816,-9.9116 a 210.26,210.26 0 0 0 -9.9346,-36.455 l 43.449,-36.862 -25.498,-44.166 -53.612,19.44 a 210.26,210.26 0 0 0 -26.585,-26.514 l 19.269,-53.853 -44.163,-25.498 -36.727,43.664 a 210.26,210.26 0 0 0 -36.347,-9.9831 l -10.173,-55.914 h -50.996 z m 25.517,179.89 a 81.732,81.732 0 0 1 81.733,81.733 81.732,81.732 0 0 1 -81.733,81.733 81.732,81.732 0 0 1 -81.733,-81.733 81.732,81.732 0 0 1 81.733,-81.733 z m 0,32.693 a 49.039,49.039 0 0 0 -49.039,49.039 49.039,49.039 0 0 0 49.039,49.039 49.039,49.039 0 0 0 49.039,-49.039 49.039,49.039 0 0 0 -49.039,-49.039 z"
         mask="url(#b-3)"
         style="color:#000000;isolation:auto;mix-blend-mode:normal;solid-color:#000000;fill:#53676c;stroke:#483737;stroke-width:0.032702;color-rendering:auto;image-rendering:auto;shape-rendering:auto"
         id="path152"
         inkscape:connector-curvature="0" />
    </g>
  </g>
</svg>
